<svg width="16" height="16" viewBox="0 0 16 16" fill="none" xmlns="http://www.w3.org/2000/svg">
<rect width="16" height="16" fill="#121212"/>
<path d="M3.83334 10.0833H12.1667V11.75H3.83334V10.0833ZM5.60417 5.91667H6.75V5.5H5.5V4.25H8.83334V5.5H7.58334V5.91667H10.4167C10.8333 5.91667 11.25 6.33333 11.3333 6.75L11.5417 9.66667H4.45834L4.6875 6.75C4.6875 6.33333 5.10417 5.91667 5.60417 5.91667ZM8.41667 6.75V7.58333H10.5V6.75H8.41667ZM5.5 6.75V7.16667H6.33334V6.75H5.5ZM6.75 6.75V7.16667H7.58334V6.75H6.75ZM5.5 7.58333V8H6.33334V7.58333H5.5ZM6.75 7.58333V8H7.58334V7.58333H6.75ZM5.5 8.41667V8.83333H6.33334V8.41667H5.5ZM6.75 8.41667V8.83333H7.58334V8.41667H6.75ZM5.91667 4.66667V5.08333H8.41667V4.66667H5.91667Z" fill="white"/>
</svg>
